<svg xmlns="http://www.w3.org/2000/svg" width="51" height="51" viewBox="0 0 51 49"><path style="stroke:none;fill-rule:nonzero;fill:#fefefe;fill-opacity:1" d="M0 0h51v49H0V0Zm0 0"/><path style="stroke:none;fill-rule:nonzero;fill:#252525;fill-opacity:1" d="M34.648 2.512c.118-.004.235-.004.352-.004h.96c.267 0 .532-.004.802-.004h1.89c.653 0 1.301 0 1.95-.004.558-.004 1.117-.004 1.675-.004h1c.313-.004.63-.004.942 0 .113 0 .226 0 .343-.004 1.032-.008 1.836.215 2.59.926.45.527.727 1.148.73 1.832 0 .102 0 .2.005.305v.679c.004.38.004.762.004 1.145.004.133.004.262.004.394 0 .551.003 1.098.003 1.645 0 .785.004 1.57.008 2.355.004.551.004 1.102.004 1.657 0 .328.004.656.004.988.004.309.004.621.004.93v.34c.012 1.027-.215 1.812-.95 2.562-.296.25-.613.406-.976.547a3.795 3.795 0 0 1-.176.082c-.25.086-.449.094-.714.094a7.925 7.925 0 0 1-.305.004h-.692c-.32.003-.64.003-.96.003-.2 0-.399 0-.602.004h-2.098c-.652 0-1.3.004-1.953.008-.558 0-1.12.004-1.68.004-.332 0-.667 0-1 .004h-1.289c-1.043.012-1.84-.215-2.597-.934-.258-.293-.414-.605-.559-.96l-.082-.176c-.086-.246-.094-.442-.098-.703v-.633c0-.117-.003-.235-.003-.348 0-.316 0-.633-.004-.95v-.589c0-.691-.004-1.379-.004-2.07 0-.64 0-1.282-.004-1.922-.004-.55-.004-1.102-.004-1.652 0-.333 0-.66-.004-.989a36.881 36.881 0 0 1 0-.93c0-.113 0-.226-.004-.34-.008-.933.16-1.742.836-2.433.82-.726 1.574-.863 2.652-.86Zm0 0"/><path style="stroke:none;fill-rule:nonzero;fill:#afabab;fill-opacity:1" d="M34.3 30.113c.098 0 .196-.004.298-.004H35.27c.375-.004.75-.004 1.125-.007h.39c.543 0 1.082-.004 1.621-.004.774 0 1.547-.004 2.32-.008.544-.004 1.087-.004 1.633-.004.325 0 .649-.004.973-.004.305-.004.613-.004.918-.004h.336c1.02-.012 1.82.219 2.566.926.555.648.727 1.328.73 2.164 0 .098 0 .195.005.293v.66c.004.371.004.742.004 1.11.004.128.004.257.004.386 0 .531.003 1.063.003 1.598 0 .758.004 1.52.008 2.281.004.535.004 1.074.004 1.61 0 .32.004.64.004.96.004.301.004.602.004.903v.328c.012 1.016-.227 1.793-.95 2.535-.296.25-.613.406-.976.547a3.795 3.795 0 0 1-.176.082c-.246.086-.441.094-.703.094H34.793c-1.066.004-1.914-.07-2.742-.79-.746-.761-.899-1.597-.887-2.624v-.34c-.004-.309 0-.614 0-.918.004-.32.004-.64.004-.965 0-.54 0-1.078.004-1.617.004-.621.004-1.242.004-1.864 0-.664.004-1.328.004-1.992v-.57c.004-.3.004-.602.004-.898.003-.114.003-.223.003-.332 0-1.043.07-1.895.813-2.692.684-.64 1.363-.836 2.3-.84Zm0 0"/><path style="stroke:none;fill-rule:nonzero;fill:#595959;fill-opacity:1" d="M6.063 30.113c.097 0 .195-.004.296-.004H7.031c.375-.004.75-.004 1.125-.007h.39c.544 0 1.083-.004 1.626-.004.77 0 1.543-.004 2.316-.008.543-.004 1.09-.004 1.633-.004.324 0 .649-.004.973-.004.308-.004.613-.004.918-.004h.336c1.02-.012 1.82.219 2.566.926.559.648.727 1.328.73 2.164 0 .098.004.195.004.293v.32c0 .114 0 .227.004.34 0 .371 0 .742.004 1.11v.386c0 .531.004 1.063.004 1.598 0 .758.004 1.52.008 2.281.004.535.004 1.074.004 1.61 0 .32.004.64.004.96.004.301.004.602.004.903v.328c.011 1.016-.227 1.793-.95 2.535-.296.25-.613.406-.972.547a8.014 8.014 0 0 1-.18.082c-.246.086-.441.094-.703.094H6.547c-1.027.004-1.988-.09-2.777-.805-.293-.313-.473-.676-.641-1.066l-.082-.172c-.086-.242-.094-.438-.094-.696V42.86a36.572 36.572 0 0 1 0-.925c0-.32 0-.645-.004-.97 0-.538.004-1.081.004-1.624v-1.88c-.004-.538-.004-1.077 0-1.612 0-.325 0-.645-.004-.965 0-.301 0-.606.004-.906v-.332c-.004-1.008.09-1.95.805-2.73.66-.599 1.43-.798 2.304-.802Zm0 0"/><path style="stroke:none;fill-rule:nonzero;fill:#010101;fill-opacity:1" d="M3.363 2.156c1.121 0 2.246-.004 3.367-.004h1.563c.504 0 1.008-.004 1.512-.004h.574c2.613-.003 5.168.102 7.184 1.97a7.788 7.788 0 0 1 1.992 3.51c.043.13.043.13.09.263.199.8.238 1.578.242 2.398.004.133.004.133.004.262-.004.605-.075 1.18-.18 1.777-.016.098-.027.195-.043.297-.277 1.602-1.066 3.031-2.227 4.172l-.171.172c-1.786 1.68-4.184 1.789-6.512 1.777-.211-.004-.422-.004-.633-.004-.5 0-.996 0-1.492-.004-.567-.004-1.133-.004-1.7-.004l-3.492-.011v-2.7c.364-.023.723-.05 1.094-.074.317-.117.317-.117.395-.308.008-.137.008-.274.008-.414.003-.086.003-.172.003-.262v-.602c.004-.277.004-.554.004-.832 0-.172 0-.347.004-.52v-1.628c.004-.625.004-1.25.008-1.88.004-.483.004-.968.004-1.452 0-.29 0-.578.004-.867v-.965c0-.098 0-.196.004-.293 0-.086-.004-.176-.004-.266v-.23c-.024-.235-.024-.235-.352-.422-.41-.051-.824-.102-1.25-.153V2.156Zm0 0"/><path style="stroke:none;fill-rule:nonzero;fill:#fcfcfc;fill-opacity:1" d="M9.543 5.469c3.184 0 3.184 0 4.223.945 1.117 1.242 1.27 3.223 1.187 4.809-.101 1.39-.48 2.68-1.578 3.629-1.102.804-2.54.71-3.832.71V5.47Zm0 0"/><path style="stroke:none;fill-rule:nonzero;fill:gray;fill-opacity:1" d="M19.633 17.41c.515.418.984.883 1.453 1.348l.266.258c.18.18.363.359.546.539.23.226.461.457.696.683l.539.535.258.25c.12.122.238.239.359.356l.207.203c.164.172.324.344.48.523a17.367 17.367 0 0 0 .989 1.02c.168.168.34.336.508.5.12.117.238.234.355.352.313.304.621.609.934.914l.949.937c.621.61 1.242 1.219 1.863 1.832.04-.031.074-.066.113-.098l.149-.125.144-.125c.145-.117.145-.117.38-.269v2.852h-2.895c.156-.313.316-.512.547-.774l-.141-.133c-.434-.43-.867-.855-1.3-1.281l-.669-.656-.648-.637c-.078-.078-.16-.16-.242-.238-.118-.113-.235-.227-.348-.344-.066-.062-.133-.125-.2-.191-.16-.168-.316-.336-.468-.512a18.238 18.238 0 0 0-.895-.93 7.212 7.212 0 0 1-.175-.172c-.192-.187-.38-.375-.57-.558l-.399-.395c-.348-.34-.695-.68-1.043-1.023-.352-.348-.707-.7-1.063-1.047l-2.085-2.05c.117-.25.246-.415.445-.61.082-.082.082-.082.168-.164.058-.055.117-.114.176-.172.062-.055.12-.113.18-.172l.437-.426Zm0 0"/><path style="stroke:none;fill-rule:nonzero;fill:#7f7f7f;fill-opacity:1" d="M10.246 20.57h2.035v6.317h1.094c-.398.476-.836.91-1.281 1.343-.07.075-.145.145-.219.215a66.62 66.62 0 0 1-.531.524c-.313-.125-.524-.34-.754-.57-.043-.044-.086-.083-.125-.126-.09-.085-.176-.171-.262-.257-.133-.13-.265-.262-.398-.395-.086-.082-.168-.164-.254-.25a3.485 3.485 0 0 0-.121-.117c-.278-.281-.278-.281-.278-.367h1.094V20.57Zm0 0"/><path style="stroke:none;fill-rule:nonzero;fill:#262626;fill-opacity:1" d="M23.23 8.707v1.078h6.415v2.004H23.23v1.078c-.48-.394-.921-.824-1.363-1.262l-.219-.218c-.175-.172-.351-.348-.527-.524.125-.308.344-.515.578-.742l.125-.125c.086-.086.176-.168.262-.254.133-.133.266-.262.402-.394.082-.082.168-.164.254-.246.059-.063.059-.063.121-.122.282-.273.282-.273.367-.273Zm0 0"/><path style="stroke:none;fill-rule:nonzero;fill:#020202;fill-opacity:1" d="M34.105 2.543c1.48-.008 2.965-.016 4.45-.02.687-.003 1.375-.003 2.066-.011.598-.004 1.2-.004 1.8-.004.317-.004.634-.004.954-.008h.898c.11 0 .22-.004.329-.004 1.015-.012 1.808.223 2.55.922.285.336.641.828.641 1.281h-.156c-.032-.07-.032-.07-.063-.144-.37-.785-.797-1.305-1.617-1.637a2.788 2.788 0 0 0-.98-.156c-.145 0-.145 0-.293-.004h-.32c-.114 0-.227 0-.34-.004-.305 0-.61-.004-.915-.004-.32 0-.64-.004-.957-.004l-1.816-.012-2.063-.011c-1.418-.012-2.832-.02-4.246-.028.024-.05.051-.101.078-.152ZM31.29 5.316h.077v.172c.004 1.399.012 2.797.02 4.192 0 .675.004 1.351.008 2.027 0 .59.003 1.176.007 1.766 0 .312.004.625.004.933 0 .297 0 .59.004.883v.324c0 .856.11 1.575.66 2.262.133.129.274.246.418.36.16.124.301.265.442.41-.52-.06-.832-.403-1.172-.77-.16-.25-.281-.5-.39-.77-.04-.09-.04-.09-.083-.175-.086-.242-.094-.43-.094-.688V13.445c0-.527 0-1.058.004-1.59V7.488c0-.297.004-.593.004-.886V5.578c.012-.183.012-.183.09-.262Zm0 0"/><path style="stroke:none;fill-rule:nonzero;fill:#0e0e0e;fill-opacity:1" d="M46.176 2.77c.676.265 1.191.808 1.488 1.453.129.297.129.297.129.476h-.156c-.02-.047-.043-.094-.063-.144-.414-.883-.894-1.356-1.816-1.703-.106-.051-.207-.102-.313-.157.258-.125.47-.007.73.075Zm0 0"/><path style="stroke:none;fill-rule:nonzero;fill:#0f0f0f;fill-opacity:1" d="M31.367 16.566c.098.184.184.372.262.567.215.465.46.777.86 1.097.156.13.3.27.44.415-.519-.06-.831-.403-1.171-.77-.238-.363-.41-.727-.469-1.156.023-.051.05-.102.078-.153Zm0 0"/><path style="stroke:none;fill-rule:nonzero;fill:#121212;fill-opacity:1" d="M33.95 2.621v.152l-.153.024c-.57.098-1.027.25-1.477.617l-.172.129c-.078-.023-.156-.05-.234-.074.625-.602 1.148-.906 2.035-.848Zm0 0"/><path style="stroke:none;fill-rule:nonzero;fill:#0f0f0f;fill-opacity:1" d="M47.246 17.566h.156c-.168.504-.562.832-1.02 1.094a1.43 1.43 0 0 1-.624.137v-.152l.133-.047c.562-.227 1.015-.532 1.355-1.032Zm0 0"/><path style="stroke:none;fill-rule:nonzero;fill:#111;fill-opacity:1" d="M31.68 3.93c.027.05.05.101.078.152-.055.152-.11.3-.168.45-.094.234-.156.468-.223.706h-.078c-.031-.472.004-.808.234-1.23.051-.028.102-.051.157-.078Zm0 0"/><path style="stroke:none;fill-rule:nonzero;fill:#161616;fill-opacity:1" d="M47.09 3.543c.234.078.234.078.36.281.038.086.081.168.124.254l.125.254c.094.215.094.215.094.367h-.156l-.188-.36-.101-.202a6.646 6.646 0 0 1-.258-.594Zm0 0"/><path style="stroke:none;fill-rule:nonzero;fill:#1c1c1c;fill-opacity:1" d="M31.836 3.543c.078.027.156.05.234.078-.129.129-.258.254-.39.387-.028-.051-.051-.102-.078-.156.078-.102.156-.204.234-.309Zm0 0"/></svg>